<?xml version="1.0" encoding="UTF-8"?>
<svg xmlns="http://www.w3.org/2000/svg" version="1.1" viewBox="0 0 1284.48 277.7">
  <defs>
    <style>
      .cls-1 {
        fill: #303030;
      }
    </style>
  </defs>
  <!-- Generator: Adobe Illustrator 28.7.5, SVG Export Plug-In . SVG Version: 1.2.0 Build 176)  -->
  <g>
    <g id="Capa_1">
      <path class="cls-1" d="M77.87,252.19c6.48-4.86,10.37-11.99,10.37-20.42V63.88h-53.8c-8.43,0-15.88,3.89-18.8,9.72h-1.94l7.45-47h175.99l7.45,47h-1.94c-2.59-5.83-10.37-9.72-18.8-9.72h-53.8v167.89c0,8.43,3.89,15.56,10.37,20.42v1.3h-62.55v-1.3Z"/>
      <path class="cls-1" d="M277.2,252.19v1.3h-62.55v-1.3c6.48-4.86,10.37-11.99,10.37-20.42V48.32c0-8.43-3.89-15.56-10.37-20.42v-1.3h88.16c49.91,0,84.27,27.55,84.27,68.06,0,29.17-18.15,49.91-47.64,58.99,30.79,22.36,45.05,72.28,91.72,72.28,22.36,0,35.33-11.99,38.89-11.99,1.3,0,3.89,2.59,3.89,7.78,0,14.26-20.74,39.22-55.75,39.22-65.15,0-90.43-95.94-133.53-95.94h-17.83v66.77c0,8.43,3.57,15.56,10.37,20.42ZM304.75,127.73c25.28,0,40.51-11.99,40.51-31.76s-15.23-32.09-40.19-32.09h-38.25v63.85h37.92Z"/>
      <path class="cls-1" d="M417.86,166.95l31.12-117.65c2.27-8.75.97-16.21-8.43-21.39v-1.3h103.39v1.3c-9.08,5.19-10.37,12.64-8.1,21.39l47.97,181.5c2.59,10.05,8.43,17.18,14.58,21.39v1.3h-62.55v-1.3c8.43-4.86,10.7-11.34,8.1-21.39l-20.09-75.52h-63.2l-3.24,11.67c-2.59,9.08-.65,16.53,8.43,21.72v1.3h-62.88v-1.3c6.48-4.54,12.32-11.99,14.91-21.72ZM514.77,120.92l-14.91-57.04h-15.23l-14.91,57.04h45.05Z"/>
      <path class="cls-1" d="M600.01,201.95c0-24.96,18.47-44.08,40.84-44.08,18.15,0,29.17,12.64,29.17,20.42,0,1.95-.65,2.59-1.62,2.59-1.94,0-4.86-1.94-10.05-1.94-11.34,0-18.47,8.1-18.47,19.12,0,15.88,15.88,25.6,35,25.6,22.04,0,36.3-13.61,36.3-32.09,0-51.53-102.42-53.48-102.42-117,0-33.06,27.87-55.75,61.26-55.75,28.85,0,45.7,17.18,55.1,17.18,2.59,0,5.83-1.62,7.78-4.54h1.94v55.75h-1.3c-14.26-16.21-37.92-30.79-58.66-30.79-15.23,0-23.98,7.45-23.98,17.5,0,33.71,102.09,44.4,102.09,116.03,0,38.89-30.79,71.3-78.11,71.3-43.11,0-74.87-26.58-74.87-59.31Z"/>
      <path class="cls-1" d="M814.57,252.19c6.48-4.86,10.37-11.99,10.37-20.42V63.88h-53.8c-8.43,0-15.88,3.89-18.8,9.72h-1.94l7.45-47h175.99l7.45,47h-1.94c-2.59-5.83-10.37-9.72-18.8-9.72h-53.8v167.89c0,8.43,3.89,15.56,10.37,20.42v1.3h-62.55v-1.3Z"/>
      <path class="cls-1" d="M1080.67,158.84c-4.54-6.16-11.99-9.4-20.42-9.4h-56.72v66.77h84.92c8.43,0,15.88-3.89,18.8-9.72h1.94l-7.45,47h-150.39v-1.3c6.48-4.86,10.37-11.99,10.37-20.42V48.32c0-8.43-3.89-15.56-10.37-20.42v-1.3h141.31l7.46,47h-1.95c-3.24-6.16-10.37-9.72-19.45-9.72h-75.19v48.29h56.72c8.43,0,15.88-3.56,20.42-9.4h1.3v56.07h-1.3Z"/>
      <path class="cls-1" d="M1119.23,201.95c0-24.96,18.47-44.08,40.84-44.08,18.15,0,29.17,12.64,29.17,20.42,0,1.95-.65,2.59-1.62,2.59-1.94,0-4.86-1.94-10.05-1.94-11.34,0-18.47,8.1-18.47,19.12,0,15.88,15.88,25.6,35,25.6,22.04,0,36.3-13.61,36.3-32.09,0-51.53-102.42-53.48-102.42-117,0-33.06,27.87-55.75,61.26-55.75,28.85,0,45.7,17.18,55.1,17.18,2.59,0,5.83-1.62,7.78-4.54h1.94v55.75h-1.3c-14.26-16.21-37.92-30.79-58.66-30.79-15.23,0-23.98,7.45-23.98,17.5,0,33.71,102.09,44.4,102.09,116.03,0,38.89-30.79,71.3-78.11,71.3-43.11,0-74.87-26.58-74.87-59.31Z"/>
    </g>
  </g>
</svg>